<svg width="25" height="25" viewBox="0 0 25 25" fill="none" xmlns="http://www.w3.org/2000/svg">
<path fill-rule="evenodd" clip-rule="evenodd" d="M6.86031 18.2275V15.1071C6.85867 14.9205 6.95761 14.7476 7.11923 14.6545C7.28085 14.5614 7.48009 14.5625 7.64062 14.6575L10.2523 16.2177C10.4098 16.3127 10.5061 16.4833 10.5061 16.6673C10.5061 16.8513 10.4098 17.0218 10.2523 17.1168L7.64062 18.6771C7.48009 18.772 7.28085 18.7732 7.11923 18.6801C6.95761 18.587 6.85867 18.414 6.86031 18.2275Z" stroke="#323232" stroke-width="2" stroke-linecap="round" stroke-linejoin="round"/>
<rect x="13.5417" y="21.875" width="10.4167" height="10.4167" rx="3" transform="rotate(180 13.5417 21.875)" stroke="#323232" stroke-width="2" stroke-linecap="round" stroke-linejoin="round"/>
<path d="M16.6667 19.7917H19.7917C20.9423 19.7917 21.875 18.8589 21.875 17.7083V8.27083C21.875 7.12024 20.9423 6.1875 19.7917 6.1875H13.0512C12.7064 6.1875 12.3839 6.01688 12.19 5.7318L10.7264 3.5807C10.5324 3.29561 10.21 3.12499 9.86515 3.125H5.20833C4.05774 3.125 3.125 4.05774 3.125 5.20833V9.375" stroke="#323232" stroke-width="2" stroke-linecap="round" stroke-linejoin="round"/>
</svg>
