<svg width="19" height="19" viewBox="0 0 19 19" fill="none" xmlns="http://www.w3.org/2000/svg">
<path fill-rule="evenodd" clip-rule="evenodd" d="M2.375 8.90704C2.375 11.0311 3.49917 12.901 5.22421 14.0798C5.22342 14.7559 5.225 15.6679 5.225 16.625L8.02038 15.242C8.49854 15.3338 8.99254 15.3837 9.5 15.3837C13.4203 15.3837 16.625 12.4996 16.625 8.90625V8.85162C16.625 5.25904 13.4203 2.375 9.5 2.375C5.57967 2.375 2.375 5.25904 2.375 8.85242V8.90704Z" stroke="#323232" stroke-width="1.3" stroke-linecap="round" stroke-linejoin="round"/>
<path d="M7.18436 7.32292H12.251L11.6969 10.0938H7.73853L6.94686 6.13542H5.95728" stroke="#323232" stroke-width="1.3" stroke-linecap="round" stroke-linejoin="round"/>
<path d="M11.3291 12.0449C11.3446 12.0603 11.3446 12.0854 11.3291 12.1009C11.3136 12.1163 11.2886 12.1163 11.2731 12.1009C11.2577 12.0854 11.2577 12.0603 11.2731 12.0449C11.2886 12.0294 11.3136 12.0294 11.3291 12.0449" stroke="#323232" stroke-width="1.3" stroke-linecap="round" stroke-linejoin="round"/>
<path d="M8.16235 12.0449C8.17781 12.0603 8.17781 12.0854 8.16235 12.1009C8.14689 12.1163 8.12183 12.1163 8.10637 12.1009C8.09091 12.0854 8.09091 12.0603 8.10637 12.0449C8.12183 12.0294 8.14689 12.0294 8.16235 12.0449" stroke="#323232" stroke-width="1.3" stroke-linecap="round" stroke-linejoin="round"/>
</svg>
