<svg width="19" height="19" viewBox="0 0 19 19" fill="none" xmlns="http://www.w3.org/2000/svg">
<path d="M14.25 13.4584L15.8333 15.0417L14.25 16.625" stroke="#323232" stroke-width="1.3" stroke-linecap="round" stroke-linejoin="round"/>
<path d="M13.4584 8.31246H5.54175" stroke="#323232" stroke-width="1.3" stroke-linecap="round" stroke-linejoin="round"/>
<path d="M5.9375 8.3125L6.52275 11.59C6.634 12.213 7.17582 12.6666 7.80868 12.6667H11.1913C11.8242 12.6666 12.366 12.213 12.4773 11.59L13.0625 8.3125" stroke="#323232" stroke-width="1.3" stroke-linecap="round" stroke-linejoin="round"/>
<path d="M11.0833 6.33337L12.423 8.31254" stroke="#323232" stroke-width="1.3" stroke-linecap="round" stroke-linejoin="round"/>
<path d="M7.91661 6.33337L6.5769 8.31254" stroke="#323232" stroke-width="1.3" stroke-linecap="round" stroke-linejoin="round"/>
<path d="M11.875 15.0417H15.8333" stroke="#323232" stroke-width="1.3" stroke-linecap="round" stroke-linejoin="round"/>
<path d="M2.375 9.5C2.375 13.435 5.56497 16.625 9.5 16.625" stroke="#323232" stroke-width="1.3" stroke-linecap="round" stroke-linejoin="round"/>
<path d="M16.625 9.5C16.625 5.56497 13.435 2.375 9.5 2.375C5.56497 2.375 2.375 5.56497 2.375 9.5" stroke="#323232" stroke-width="1.3" stroke-linecap="round" stroke-linejoin="round"/>
<path d="M16.441 11.0833C16.5623 10.5643 16.624 10.0331 16.625 9.5" stroke="#323232" stroke-width="1.3" stroke-linecap="round" stroke-linejoin="round"/>
</svg>
