<svg width="19" height="19" viewBox="0 0 19 19" fill="none" xmlns="http://www.w3.org/2000/svg">
<path fill-rule="evenodd" clip-rule="evenodd" d="M4.90527 4.90517H7.91677V7.91667H4.90527V4.90517Z" stroke="#323232" stroke-width="1.3" stroke-linecap="round" stroke-linejoin="round"/>
<path fill-rule="evenodd" clip-rule="evenodd" d="M4.84497 11.1783H7.91664V14.25H4.84497V11.1783Z" stroke="#323232" stroke-width="1.3" stroke-linecap="round" stroke-linejoin="round"/>
<path d="M11.0833 12.6667V11.0833" stroke="#323232" stroke-width="1.3" stroke-linecap="round" stroke-linejoin="round"/>
<path d="M14.0916 14.0917H12.5083" stroke="#323232" stroke-width="1.3" stroke-linecap="round" stroke-linejoin="round"/>
<path fill-rule="evenodd" clip-rule="evenodd" d="M14.1548 7.82143H11.0831V4.74976H14.1548V7.82143Z" stroke="#323232" stroke-width="1.3" stroke-linecap="round" stroke-linejoin="round"/>
<path d="M17.0208 6.31592V3.56251C17.0208 2.68771 16.3123 1.97917 15.4375 1.97917H12.6841" stroke="#323232" stroke-width="1.3" stroke-linecap="round" stroke-linejoin="round"/>
<path d="M12.9041 11.0833H14.0916" stroke="#323232" stroke-width="1.3" stroke-linecap="round" stroke-linejoin="round"/>
<path d="M6.316 1.97917H3.56258C2.68779 1.97917 1.97925 2.68771 1.97925 3.56251V6.31592" stroke="#323232" stroke-width="1.3" stroke-linecap="round" stroke-linejoin="round"/>
<path d="M1.97925 12.6841V15.4375C1.97925 16.3123 2.68779 17.0208 3.56258 17.0208H6.316" stroke="#323232" stroke-width="1.3" stroke-linecap="round" stroke-linejoin="round"/>
<path d="M12.6841 17.0208H15.4375C16.3123 17.0208 17.0208 16.3123 17.0208 15.4375V12.6841" stroke="#323232" stroke-width="1.3" stroke-linecap="round" stroke-linejoin="round"/>
</svg>
