<svg width="19" height="19" viewBox="0 0 19 19" fill="none" xmlns="http://www.w3.org/2000/svg">
<path d="M13.3943 12.6151L14.2313 12.4235C15.6338 12.1026 16.6282 10.8549 16.6282 9.41616V9.41616C16.6282 8.80799 16.3866 8.22473 15.9566 7.79469C15.5265 7.36464 14.9433 7.12305 14.3351 7.12305H12.2722" stroke="#323232" stroke-width="1.3" stroke-linecap="round" stroke-linejoin="round"/>
<path fill-rule="evenodd" clip-rule="evenodd" d="M3.16407 7.12305H12.668C13.1054 7.12305 13.46 7.47764 13.46 7.91504V11.875C13.46 14.4995 11.3325 16.627 8.70804 16.627H7.12405C4.4996 16.627 2.37207 14.4995 2.37207 11.875V7.91504C2.37207 7.47764 2.72666 7.12305 3.16407 7.12305Z" stroke="#323232" stroke-width="1.3" stroke-linecap="round" stroke-linejoin="round"/>
<path d="M10.688 4.74806C10.4387 4.5611 10.292 4.26768 10.292 3.95607C10.292 3.64446 10.4387 3.35104 10.688 3.16407C10.9373 2.97711 11.084 2.68368 11.084 2.37207C11.084 2.06047 10.9373 1.76704 10.688 1.58008" stroke="#323232" stroke-width="1.3" stroke-linecap="round" stroke-linejoin="round"/>
<path d="M7.91602 4.74806C7.66673 4.5611 7.52002 4.26768 7.52002 3.95607C7.52002 3.64446 7.66673 3.35104 7.91602 3.16407C8.1653 2.97711 8.31202 2.68368 8.31202 2.37207C8.31202 2.06047 8.1653 1.76704 7.91602 1.58008" stroke="#323232" stroke-width="1.3" stroke-linecap="round" stroke-linejoin="round"/>
<path d="M5.14405 4.74806C4.89476 4.5611 4.74805 4.26768 4.74805 3.95607C4.74805 3.64446 4.89476 3.35104 5.14405 3.16407C5.39333 2.97711 5.54004 2.68368 5.54004 2.37207C5.54004 2.06047 5.39333 1.76704 5.14405 1.58008" stroke="#323232" stroke-width="1.3" stroke-linecap="round" stroke-linejoin="round"/>
<path d="M7.12403 7.12305V9.49904" stroke="#323232" stroke-width="1.3" stroke-linecap="round" stroke-linejoin="round"/>
<rect x="5.54004" y="9.5" width="3.16799" height="3.16799" rx="1" stroke="#323232" stroke-width="1.3" stroke-linecap="round" stroke-linejoin="round"/>
</svg>
