<svg width="19" height="19" viewBox="0 0 19 19" fill="none" xmlns="http://www.w3.org/2000/svg">
<path d="M16.6249 11.084V15.0423C16.6249 15.9168 15.916 16.6257 15.0416 16.6257H13.4583" stroke="#323232" stroke-width="1.3" stroke-linecap="round" stroke-linejoin="round"/>
<path d="M2.375 5.54167V3.95833C2.375 3.08388 3.08388 2.375 3.95833 2.375H5.54167" stroke="#323232" stroke-width="1.3" stroke-linecap="round" stroke-linejoin="round"/>
<path d="M13.4584 9.5H14.8438C15.8276 9.5 16.6251 8.70251 16.6251 7.71875V4.15625C16.6251 3.17249 15.8276 2.375 14.8438 2.375H9.698C8.71424 2.375 7.91675 3.17249 7.91675 4.15625V5.54167" stroke="#323232" stroke-width="1.3" stroke-linecap="round" stroke-linejoin="round"/>
<path d="M10.2917 5.14649L11.8665 5.85171C12.1238 5.96695 12.4181 5.96695 12.6754 5.85171L14.2501 5.14649" stroke="#323232" stroke-width="1.3" stroke-linecap="round" stroke-linejoin="round"/>
<path d="M4.75 11.0833H7.125" stroke="#323232" stroke-width="1.3" stroke-linecap="round" stroke-linejoin="round"/>
<path d="M4.75 13.4583H8.70833" stroke="#323232" stroke-width="1.3" stroke-linecap="round" stroke-linejoin="round"/>
<rect x="2.375" y="7.91602" width="8.70833" height="8.70833" rx="2" stroke="#323232" stroke-width="1.3" stroke-linecap="round" stroke-linejoin="round"/>
</svg>
