<svg width="19" height="19" viewBox="0 0 19 19" fill="none" xmlns="http://www.w3.org/2000/svg">
<path d="M13.2603 6.33301H13.4582C14.9885 6.33301 16.229 7.57355 16.229 9.10384C16.229 10.6341 14.9885 11.8747 13.4582 11.8747" stroke="#323232" stroke-width="1.3" stroke-linecap="round" stroke-linejoin="round"/>
<path d="M5.60834 5.5752C3.93364 5.74628 2.68749 7.20085 2.77537 8.88196C2.86325 10.5631 4.25427 11.8798 5.93767 11.8753H13.4585" stroke="#323232" stroke-width="1.3" stroke-linecap="round" stroke-linejoin="round"/>
<path d="M5.6084 5.57495C5.94834 3.60174 7.74261 2.21748 9.73749 2.38941C11.7324 2.56134 13.2633 4.23219 13.2606 6.23446V6.33342" stroke="#323232" stroke-width="1.3" stroke-linecap="round" stroke-linejoin="round"/>
<path d="M11.875 15.8333H15.8333" stroke="#323232" stroke-width="1.3" stroke-linecap="round" stroke-linejoin="round"/>
<path d="M3.1665 15.8333H7.12484" stroke="#323232" stroke-width="1.3" stroke-linecap="round" stroke-linejoin="round"/>
<path d="M9.49984 11.8906V14.2498" stroke="#323232" stroke-width="1.3" stroke-linecap="round" stroke-linejoin="round"/>
<rect x="7.125" y="14.6455" width="4.75" height="2.375" rx="1.1875" stroke="#323232" stroke-width="1.3" stroke-linecap="round" stroke-linejoin="round"/>
</svg>
