<svg width="25" height="25" viewBox="0 0 25 25" fill="none" xmlns="http://www.w3.org/2000/svg">
<path fill-rule="evenodd" clip-rule="evenodd" d="M20.3157 21.8789H4.68424C3.53317 21.8789 2.60004 20.9458 2.60004 19.7947V5.20529C2.60004 4.05422 3.53317 3.12109 4.68424 3.12109H20.3157C21.4668 3.12109 22.3999 4.05422 22.3999 5.20529V19.7947C22.3999 20.9458 21.4668 21.8789 20.3157 21.8789Z" stroke="#323232" stroke-width="2" stroke-linecap="round" stroke-linejoin="round"/>
<path d="M2.60004 8.3316H22.3999" stroke="#323232" stroke-width="2" stroke-linecap="round" stroke-linejoin="round"/>
<path fill-rule="evenodd" clip-rule="evenodd" d="M6.25333 15.0344C6.2509 13.9299 7.14436 13.0325 8.24893 13.03L16.7541 13.0113C17.8587 13.0089 18.7561 13.9024 18.7585 15.0069L18.7589 15.1753C18.7613 16.2799 17.8678 17.1773 16.7633 17.1797L8.25809 17.1984C7.15353 17.2009 6.25613 16.3074 6.2537 15.2028L6.25333 15.0344Z" stroke="#323232" stroke-width="2" stroke-linecap="round" stroke-linejoin="round"/>
<path d="M11.4589 13.0232L9.38412 17.1968" stroke="#323232" stroke-width="2" stroke-linecap="round" stroke-linejoin="round"/>
<path d="M15.6273 13.0139L13.5525 17.1875" stroke="#323232" stroke-width="2" stroke-linecap="round" stroke-linejoin="round"/>
<path d="M11.0807 5.72637C11.0807 5.6976 11.0573 5.67427 11.0286 5.67427C11.0147 5.67427 11.0015 5.67976 10.9917 5.68953C10.9819 5.6993 10.9765 5.71255 10.9765 5.72637C10.9765 5.75515 10.9998 5.77848 11.0286 5.77848C11.0573 5.77848 11.0807 5.75515 11.0807 5.72637" stroke="#323232" stroke-width="2" stroke-linecap="round" stroke-linejoin="round"/>
<path d="M8.4358 5.72637C8.4358 5.71255 8.43031 5.6993 8.42053 5.68953C8.41076 5.67976 8.39751 5.67427 8.38369 5.67427C8.35491 5.67427 8.33159 5.6976 8.33159 5.72637C8.33159 5.75515 8.35491 5.77848 8.38369 5.77848C8.41247 5.77848 8.4358 5.75515 8.4358 5.72637" stroke="#323232" stroke-width="2" stroke-linecap="round" stroke-linejoin="round"/>
<path d="M5.78367 5.72637C5.78367 5.6976 5.76034 5.67427 5.73156 5.67427C5.70278 5.67427 5.67946 5.6976 5.67946 5.72637C5.67946 5.75515 5.70278 5.77848 5.73156 5.77848C5.76034 5.77848 5.78367 5.75515 5.78367 5.72637" stroke="#323232" stroke-width="2" stroke-linecap="round" stroke-linejoin="round"/>
</svg>
