<svg width="25" height="25" viewBox="0 0 25 25" fill="none" xmlns="http://www.w3.org/2000/svg">
<path d="M21.875 11.4583V19.7917C21.875 20.9427 20.9427 21.875 19.7917 21.875H5.20833C4.05729 21.875 3.125 20.9427 3.125 19.7917V5.20833C3.125 4.05729 4.05729 3.125 5.20833 3.125H11.4583" stroke="#323232" stroke-width="2" stroke-linecap="round" stroke-linejoin="round"/>
<path d="M16.6667 3.125L20.8333 7.29167" stroke="#323232" stroke-width="2" stroke-linecap="round" stroke-linejoin="round"/>
<path d="M16.6667 7.29167L20.8333 3.125" stroke="#323232" stroke-width="2" stroke-linecap="round" stroke-linejoin="round"/>
<path d="M3.125 15.625H7.68958C8.08437 15.625 8.44479 15.8479 8.62083 16.201L9.08646 17.1323C9.26354 17.4854 9.62396 17.7083 10.0187 17.7083H14.9812C15.376 17.7083 15.7365 17.4854 15.9125 17.1323L16.3781 16.201C16.5552 15.8479 16.9156 15.625 17.3104 15.625H21.875" stroke="#323232" stroke-width="2" stroke-linecap="round" stroke-linejoin="round"/>
</svg>
