<svg width="25" height="25" viewBox="0 0 25 25" fill="none" xmlns="http://www.w3.org/2000/svg">
<path d="M7.81055 3.12109H5.2053C4.65248 3.12094 4.12227 3.34048 3.73137 3.73137C3.34048 4.12227 3.12094 4.65248 3.12109 5.2053V7.81055" stroke="#323232" stroke-width="2" stroke-linecap="round" stroke-linejoin="round"/>
<path d="M3.12109 17.1895V19.7947C3.12094 20.3475 3.34048 20.8777 3.73137 21.2686C4.12227 21.6595 4.65248 21.8791 5.2053 21.8789H7.81055" stroke="#323232" stroke-width="2" stroke-linecap="round" stroke-linejoin="round"/>
<path d="M17.1895 21.8789H19.7947C20.3475 21.8791 20.8777 21.6595 21.2686 21.2686C21.6595 20.8777 21.8791 20.3475 21.8789 19.7947V17.1895" stroke="#323232" stroke-width="2" stroke-linecap="round" stroke-linejoin="round"/>
<path d="M21.8789 7.81055V5.2053C21.8791 4.65248 21.6595 4.12227 21.2686 3.73137C20.8777 3.34048 20.3475 3.12094 19.7947 3.12109H17.1895" stroke="#323232" stroke-width="2" stroke-linecap="round" stroke-linejoin="round"/>
<path d="M7.28949 8.3316H17.7105" stroke="#323232" stroke-width="2" stroke-linecap="round" stroke-linejoin="round"/>
<path d="M7.28949 12.5H17.7105" stroke="#323232" stroke-width="2" stroke-linecap="round" stroke-linejoin="round"/>
<path d="M7.28949 16.6684H12.5" stroke="#323232" stroke-width="2" stroke-linecap="round" stroke-linejoin="round"/>
</svg>
